<svg aria-hidden="true" style="position: absolute; width: 0; height: 0; overflow: hidden;" version="1.1" xmlns="http://www.w3.org/2000/svg" xmlns:xlink="http://www.w3.org/1999/xlink">
<defs>
<symbol id="icon-filter" viewBox="0 0 32 32">
<path d="M32.29 3.828h-21.839c-0.65-2.212-2.695-3.828-5.117-3.828-2.946 0-5.333 2.388-5.333 5.333s2.388 5.333 5.333 5.333c2.42 0 4.462-1.611 5.115-3.819h21.842v-3.019zM5.333 8.426c-1.708 0-3.092-1.384-3.092-3.092s1.384-3.092 3.092-3.092 3.092 1.384 3.092 3.092-1.384 3.092-3.092 3.092z"></path>
<path d="M32.29 25.161h-21.839c-0.65-2.212-2.695-3.828-5.117-3.828-2.946 0-5.333 2.388-5.333 5.333s2.388 5.333 5.333 5.333c2.42 0 4.462-1.611 5.115-3.819h21.842v-3.019zM5.333 29.759c-1.708 0-3.092-1.384-3.092-3.092s1.384-3.092 3.092-3.092 3.092 1.384 3.092 3.092-1.384 3.092-3.092 3.092z"></path>
<path d="M0 17.505h21.839c0.65 2.212 2.695 3.828 5.118 3.828 2.946 0 5.333-2.388 5.333-5.333s-2.388-5.333-5.333-5.333c-2.42 0-4.462 1.611-5.115 3.819h-21.842v3.019zM26.957 12.908c1.708 0 3.092 1.384 3.092 3.092s-1.384 3.092-3.092 3.092-3.092-1.384-3.092-3.092 1.384-3.092 3.092-3.092z"></path>
</symbol>
<symbol id="icon-innovation" viewBox="0 0 32 32">
<path fill="#fff" style="fill: var(--color1, #fff)" d="M22.71 22.013l-0.103 0.077-2.787-2.813 0.052-0.077c1.084-1.6 1.626-3.174 1.626-4.748 0-0.929-0.232-1.832-0.671-2.632l-0.052-0.077 1.832-1.832 0.103 0.077c0.981 0.826 2.245 1.265 3.51 1.265 3.045 0 5.497-2.477 5.497-5.497 0.026-3.045-2.452-5.497-5.471-5.497s-5.497 2.477-5.497 5.497c0 1.29 0.465 2.529 1.265 3.51l0.077 0.103-1.729 1.729-0.103-0.103c-1.058-1.29-2.606-2.039-4.258-2.039s-3.2 0.748-4.258 2.039l-0.103 0.103-1.729-1.729 0.077-0.103c0.826-0.981 1.265-2.245 1.265-3.51 0-1.471-0.568-2.839-1.6-3.897-1.032-1.032-2.426-1.6-3.897-1.6-3.019 0-5.497 2.477-5.497 5.497s2.477 5.497 5.497 5.497c1.29 0 2.529-0.465 3.51-1.265l0.103-0.077 1.832 1.832-0.052 0.077c-0.439 0.8-0.671 1.703-0.671 2.632 0 1.548 0.542 3.148 1.626 4.748l0.052 0.077-2.787 2.813-0.103-0.077c-0.981-0.826-2.245-1.265-3.51-1.265-3.019 0-5.497 2.452-5.497 5.497s2.477 5.497 5.497 5.497 5.497-2.477 5.497-5.497c0-1.29-0.465-2.529-1.265-3.51l-0.077-0.103 2.71-2.71 0.077 0.103c1.187 1.497 2.529 2.555 3.045 2.916l0.232 0.181 0.232-0.155c0.284-0.206 1.729-1.29 3.071-2.942l0.077-0.103 2.71 2.71-0.077 0.103c-0.826 0.981-1.265 2.245-1.265 3.51 0 3.045 2.477 5.497 5.497 5.497s5.497-2.477 5.497-5.497-2.477-5.497-5.497-5.497v-0.129c0 0 0 0 0 0v0c0 0 0 0 0 0v0.129c-1.265-0.026-2.503 0.439-3.51 1.265zM29.239 9.419c-0.852 0.697-1.91 1.058-2.994 1.058-1.11 0-2.142-0.361-2.994-1.058l-0.077-0.052 0.026-0.077c0.465-1.265 1.677-2.116 3.045-2.116s2.555 0.852 3.045 2.116l0.026 0.077-0.077 0.052zM24.568 4.723c0-0.929 0.748-1.677 1.677-1.677s1.677 0.748 1.677 1.677-0.748 1.677-1.677 1.677-1.677-0.748-1.677-1.677zM21.523 5.755c0-2.606 2.116-4.723 4.723-4.723v0c2.606 0 4.723 2.116 4.723 4.723 0 1.032-0.335 2.013-0.955 2.839l-0.129 0.155-0.103-0.181c-0.413-0.8-1.11-1.445-1.91-1.832l-0.181-0.077 0.155-0.129c0.542-0.465 0.826-1.11 0.826-1.806 0-1.342-1.084-2.426-2.426-2.426s-2.426 1.084-2.426 2.426c0 0.671 0.31 1.342 0.826 1.806l0.155 0.129-0.181 0.077c-0.826 0.361-1.497 1.032-1.91 1.832l-0.103 0.181-0.129-0.155c-0.645-0.826-0.955-1.806-0.955-2.839zM8.748 9.419c-0.852 0.697-1.91 1.058-2.994 1.058-1.11 0-2.142-0.361-2.994-1.058l-0.077-0.052 0.026-0.077c0.465-1.265 1.677-2.116 3.045-2.116 1.342 0 2.555 0.852 3.045 2.116l0.026 0.077-0.077 0.052zM4.103 4.723c0-0.929 0.748-1.677 1.677-1.677s1.677 0.748 1.677 1.677-0.748 1.677-1.677 1.677-1.677-0.748-1.677-1.677zM9.419 8.774l-0.103-0.181c-0.413-0.8-1.11-1.445-1.91-1.832l-0.181-0.103 0.155-0.129c0.542-0.465 0.826-1.11 0.826-1.806 0-1.342-1.084-2.426-2.426-2.426s-2.426 1.084-2.426 2.426c0 0.671 0.31 1.342 0.826 1.806l0.155 0.129-0.206 0.103c-0.826 0.361-1.497 1.032-1.91 1.832l-0.103 0.181-0.129-0.155c-0.619-0.826-0.955-1.806-0.955-2.839 0-1.265 0.49-2.452 1.368-3.355 0.903-0.903 2.090-1.394 3.355-1.394 2.606 0 4.723 2.116 4.723 4.723 0 1.032-0.335 2.013-0.955 2.839l-0.103 0.181zM8.748 29.91c-0.826 0.697-1.91 1.058-2.994 1.058-1.11 0-2.142-0.361-2.994-1.058l-0.077-0.052 0.026-0.077c0.465-1.265 1.677-2.116 3.045-2.116 1.342 0 2.555 0.852 3.045 2.116l0.026 0.077-0.077 0.052zM4.103 25.213c0-0.929 0.748-1.677 1.677-1.677s1.677 0.748 1.677 1.677-0.748 1.677-1.677 1.677-1.677-0.748-1.677-1.677zM10.503 26.245c0 1.032-0.335 2.013-0.955 2.839l-0.026 0.052h-0.155l-0.052-0.077c-0.413-0.8-1.11-1.445-1.91-1.832l-0.181-0.077 0.155-0.129c0.542-0.465 0.826-1.11 0.826-1.806 0-1.342-1.084-2.426-2.426-2.426s-2.426 1.084-2.426 2.426c0 0.697 0.284 1.342 0.826 1.806l0.155 0.129-0.181 0.077c-0.826 0.361-1.497 1.032-1.91 1.832l-0.103 0.181-0.129-0.155c-0.619-0.826-0.955-1.806-0.955-2.839 0-2.606 2.116-4.748 4.723-4.748s4.723 2.142 4.723 4.748zM16.077 22.116l-0.077 0.052-0.077-0.052c-1.084-0.852-4.645-3.923-4.645-7.665 0-2.606 2.116-4.748 4.723-4.748s4.723 2.142 4.723 4.748c0 3.716-3.561 6.813-4.645 7.665zM29.239 29.91c-0.826 0.697-1.91 1.058-2.994 1.058-1.11 0-2.142-0.361-2.994-1.058l-0.077-0.052 0.026-0.077c0.465-1.265 1.677-2.116 3.045-2.116 1.342 0 2.555 0.852 3.045 2.116l0.026 0.077-0.077 0.052zM24.568 25.213c0-0.929 0.748-1.677 1.677-1.677s1.677 0.748 1.677 1.677-0.748 1.677-1.677 1.677-1.677-0.748-1.677-1.677zM26.245 21.497c2.606 0 4.748 2.116 4.748 4.723 0 1.032-0.335 2.013-0.955 2.839l-0.026 0.052h-0.155l-0.052-0.077c-0.413-0.8-1.11-1.445-1.91-1.832l-0.181-0.077 0.155-0.129c0.542-0.465 0.826-1.11 0.826-1.806 0-1.342-1.084-2.426-2.426-2.426s-2.426 1.084-2.426 2.426c0 0.697 0.284 1.342 0.826 1.806l0.155 0.129-0.181 0.077c-0.826 0.361-1.497 1.032-1.91 1.832l-0.103 0.181-0.129-0.155c-0.619-0.826-0.955-1.806-0.955-2.839-0.026-2.606 2.090-4.723 4.697-4.723z"></path>
<path fill="#fff" style="fill: var(--color1, #fff)" d="M16 12.155c-1.265 0-2.297 1.032-2.297 2.297s1.032 2.297 2.297 2.297c1.265 0 2.297-1.032 2.297-2.297s-1.032-2.297-2.297-2.297zM16 16.258c-0.981 0-1.806-0.8-1.806-1.806s0.8-1.806 1.806-1.806c0.981 0 1.806 0.8 1.806 1.806s-0.826 1.806-1.806 1.806z"></path>
</symbol>
<symbol id="icon-octogon" viewBox="0 0 33 32">
<path d="M13.797 30.865l-12.647-7.22v-14.738c0-0.272-0.221-0.493-0.493-0.493s-0.493 0.221-0.493 0.493v15.313l13.147 7.504c0.237 0.135 0.538 0.053 0.673-0.184 0.134-0.238 0.051-0.54-0.185-0.674z"></path>
<path d="M32.354 7.981l-13.594-7.836-13.583 7.855 0.010 15.692 13.594 7.836 13.584-7.855-0.011-15.692zM18.781 31.203l-13.313-7.673-0.011-15.368 13.303-7.693 13.313 7.675 0.010 15.367-13.302 7.693z"></path>
</symbol>
<symbol id="icon-proactive" viewBox="0 0 43 32">
<path fill="#fff" style="fill: var(--color1, #fff)" d="M24.405 6.719l-0.118 0.125 0.171 0.015c1.096 0.097 2.132 0.606 2.918 1.313-0.228 0.327-0.435 0.68-0.617 1.059-0.746-0.742-1.774-1.221-2.93-1.221h-4.698c-1.156 0-2.184 0.479-2.93 1.221-0.154-0.354-0.357-0.706-0.56-1.054 0.785-0.706 1.791-1.187 2.925-1.317l0.165-0.019-0.114-0.121c-0.655-0.693-1.052-1.646-1.052-2.67 0-2.181 1.775-3.96 3.945-3.96s3.945 1.784 3.945 3.96c0 1.019-0.397 1.977-1.052 2.67zM24.245 4.049c0-1.525-1.247-2.777-2.767-2.777s-2.767 1.252-2.767 2.777c0 1.525 1.247 2.777 2.767 2.777s2.767-1.252 2.767-2.777z"></path>
<path fill="#fff" style="fill: var(--color1, #fff)" d="M38.134 6.725l-0.056 0.059 0.084 0.083 0.029 0.003c2.642 0.299 4.692 2.558 4.692 5.277v6.062c0 0.697-0.571 1.266-1.262 1.266h-1.527c-0.126-0.22-0.258-0.446-0.42-0.641-0.067-0.1-0.138-0.206-0.244-0.313l-0.010-0.010-0.012-0.006c-0.019-0.009-0.035-0.025-0.053-0.046-0.009-0.011-0.017-0.022-0.027-0.035-0.008-0.011-0.019-0.025-0.031-0.037-0.298-0.33-0.621-0.628-0.951-0.894v-1.31c0-0.326 0.267-0.591 0.586-0.591s0.586 0.266 0.586 0.591v2.102h2.181v-6.146c0-2.273-1.849-4.127-4.112-4.127h-4.698c-1.462 0-2.76 0.778-3.48 1.938-0.684 0.363-1.267 0.857-1.74 1.435 0.321-2.386 2.246-4.235 4.628-4.523l0.164-0.020-0.114-0.12c-0.655-0.693-1.052-1.646-1.052-2.67 0-2.181 1.775-3.96 3.945-3.96s3.945 1.784 3.945 3.96c0 1.019-0.397 1.977-1.052 2.67zM38.008 4.049c0-1.525-1.247-2.777-2.767-2.777s-2.767 1.252-2.767 2.777c0 1.525 1.247 2.777 2.767 2.777s2.767-1.252 2.767-2.777z"></path>
<path fill="#fff" style="fill: var(--color1, #fff)" d="M3.565 18.51l-0.142 0.142h0.020c-0.004 0.005-0.008 0.009-0.012 0.014l-0.001 0.001c-0.042 0.051-0.082 0.099-0.13 0.146l-0.006 0.006-0.005 0.007c-0.032 0.048-0.066 0.098-0.102 0.15-0.103 0.152-0.217 0.32-0.316 0.488h-1.528c-0.696 0-1.261-0.57-1.261-1.266v-6.062c0-2.724 2.050-4.978 4.692-5.277l0.166-0.019-0.115-0.121c-0.655-0.693-1.052-1.646-1.052-2.67 0-2.182 1.769-3.966 3.94-3.966s3.945 1.784 3.945 3.96c0 1.019-0.397 1.977-1.052 2.67l-0.114 0.12 0.164 0.020c2.378 0.287 4.301 2.136 4.627 4.512-0.474-0.596-1.057-1.063-1.739-1.424-0.72-1.154-2.017-1.938-3.48-1.938h-4.698c-2.263 0-4.112 1.86-4.112 4.127v6.146h2.22v-2.102c0-0.326 0.267-0.591 0.586-0.591s0.586 0.266 0.586 0.591v1.307c-0.359 0.266-0.65 0.562-0.942 0.887-0.041 0.024-0.070 0.055-0.092 0.081-0.010 0.011-0.019 0.023-0.026 0.033-0.002 0.002-0.003 0.005-0.005 0.007-0.009 0.012-0.015 0.018-0.019 0.023zM10.487 4.049c0-1.525-1.247-2.777-2.767-2.777s-2.767 1.252-2.767 2.777c0 1.525 1.247 2.777 2.767 2.777s2.767-1.252 2.767-2.777z"></path>
<path fill="#fff" style="fill: var(--color1, #fff)" d="M34.775 17.505l-0.133 0.141h0.2c2.64 0.301 4.687 2.559 4.687 5.276v6.096c0 0.697-0.571 1.266-1.261 1.266h-7.637v-1.183h4.361v-2.102c0-0.326 0.267-0.591 0.586-0.591s0.586 0.266 0.586 0.591v2.102h2.181v-6.146c0-2.267-1.849-4.127-4.112-4.127h-4.698c-0.464 0-0.926 0.064-1.363 0.225-0.358-0.295-0.739-0.565-1.151-0.785 0.595-0.323 1.242-0.53 1.918-0.623l0.161-0.022-0.111-0.118c-0.655-0.693-1.052-1.646-1.052-2.67 0-2.181 1.775-3.96 3.945-3.96s3.946 1.784 3.946 3.96c0 1.019-0.397 1.977-1.052 2.67zM34.649 14.83c0-1.525-1.247-2.777-2.767-2.777s-2.767 1.252-2.767 2.777c0 1.525 1.247 2.777 2.767 2.777s2.767-1.252 2.767-2.777z"></path>
<path fill="#fff" style="fill: var(--color1, #fff)" d="M15.935 18.229c-0.413 0.221-0.796 0.492-1.155 0.788-0.431-0.13-0.891-0.227-1.36-0.227h-4.698c-2.258 0.006-4.101 1.863-4.101 4.127v6.146h2.181v-2.102c0-0.326 0.267-0.591 0.586-0.591s0.586 0.266 0.586 0.591v2.102h4.361v1.183h-7.637c-0.696 0-1.261-0.57-1.261-1.266v-6.062c0-2.724 2.050-4.978 4.693-5.31l0.163-0.020-0.113-0.119c-0.655-0.693-1.052-1.646-1.052-2.67 0-2.181 1.775-3.96 3.945-3.96s3.945 1.784 3.945 3.96c0 1.019-0.397 1.977-1.052 2.67l-0.112 0.119 0.162 0.021c0.706 0.093 1.33 0.3 1.918 0.623zM13.841 14.829c0-1.525-1.247-2.777-2.767-2.777s-2.767 1.252-2.767 2.777c0 1.525 1.247 2.777 2.767 2.777s2.767-1.252 2.767-2.777z"></path>
<path fill="#fff" style="fill: var(--color1, #fff)" d="M25.761 30.328v0.083h2.187v-6.146c0-2.273-1.849-4.127-4.112-4.127h-4.698c-2.263 0-4.112 1.86-4.112 4.127v6.146h2.181v-2.102c0-0.326 0.267-0.591 0.586-0.591s0.586 0.266 0.586 0.591v2.102h6.21v-2.102c0-0.326 0.267-0.591 0.586-0.591s0.586 0.266 0.586 0.591v2.019zM24.377 18.855l-0.133 0.141h0.194c2.64 0.301 4.687 2.559 4.687 5.276v6.062c0 0.696-0.571 1.266-1.261 1.266h-12.756c-0.696 0-1.261-0.57-1.261-1.266v-6.062c0-2.724 2.050-4.978 4.692-5.276l0.166-0.019-0.115-0.121c-0.655-0.693-1.052-1.646-1.052-2.67 0-2.181 1.775-3.96 3.945-3.96s3.945 1.784 3.945 3.96c0 1.019-0.397 1.977-1.052 2.67zM24.25 16.179c0-1.525-1.247-2.777-2.767-2.777s-2.767 1.252-2.767 2.777c0 1.525 1.247 2.777 2.767 2.777s2.767-1.252 2.767-2.777z"></path>
</symbol>
<symbol id="icon-download" viewBox="0 0 21 28">
<path d="M19.059 14.438l-8.094 8.121c-0.257 0.257-0.673 0.257-0.93 0l-8.094-8.121c-0.257-0.257-0.257-0.673 0-0.93l0.388-0.388c0.257-0.257 0.673-0.257 0.93 0l6.311 6.344v-17.057c0-0.361 0.295-0.656 0.656-0.656h0.547c0.361 0 0.656 0.295 0.656 0.656v17.057l6.311-6.338c0.257-0.257 0.673-0.257 0.93 0l0.388 0.388c0.257 0.252 0.257 0.667 0 0.924zM21 25.594v-0.438c0-0.361-0.295-0.656-0.656-0.656h-19.688c-0.361 0-0.656 0.295-0.656 0.656v0.438c0 0.361 0.295 0.656 0.656 0.656h19.688c0.361 0 0.656-0.295 0.656-0.656z"></path>
</symbol>
<symbol id="icon-angle-down" viewBox="0 0 14 28">
<path d="M6.535 17.877l-6.344-6.442c-0.257-0.257-0.257-0.673 0-0.93l0.388-0.388c0.257-0.257 0.673-0.257 0.93 0l5.491 5.595 5.491-5.589c0.257-0.257 0.673-0.257 0.93 0l0.388 0.388c0.257 0.257 0.257 0.673 0 0.93l-6.344 6.442c-0.257 0.252-0.673 0.252-0.93-0.005z"></path>
</symbol>
<symbol id="icon-angle-up" viewBox="0 0 14 28">
<path d="M7.465 10.123l6.344 6.442c0.257 0.257 0.257 0.673 0 0.93l-0.388 0.388c-0.257 0.257-0.673 0.257-0.93 0l-5.491-5.595-5.491 5.589c-0.257 0.257-0.673 0.257-0.93 0l-0.388-0.388c-0.257-0.257-0.257-0.673 0-0.93l6.344-6.442c0.257-0.252 0.673-0.252 0.93 0.005z"></path>
</symbol>
<symbol id="icon-plus" viewBox="0 0 21 28">
<path d="M20.563 12.688h-8.75v-8.75c0-0.242-0.196-0.438-0.438-0.438h-1.75c-0.242 0-0.438 0.196-0.438 0.438v8.75h-8.75c-0.242 0-0.438 0.196-0.438 0.438v1.75c0 0.242 0.196 0.438 0.438 0.438h8.75v8.75c0 0.242 0.196 0.438 0.438 0.438h1.75c0.242 0 0.438-0.196 0.438-0.438v-8.75h8.75c0.242 0 0.438-0.196 0.438-0.438v-1.75c0-0.242-0.196-0.438-0.438-0.438z"></path>
</symbol>
<symbol id="icon-minus" viewBox="0 0 21 28">
<path d="M20.563 12.688h-20.125c-0.242 0-0.438 0.196-0.438 0.438v1.75c0 0.242 0.196 0.438 0.438 0.438h20.125c0.242 0 0.438-0.196 0.438-0.438v-1.75c0-0.242-0.196-0.438-0.438-0.438z"></path>
</symbol>
<symbol id="icon-arrow-right" viewBox="0 0 32 32">
<path d="M19.414 27.414l10-10c0.781-0.781 0.781-2.047 0-2.828l-10-10c-0.781-0.781-2.047-0.781-2.828 0s-0.781 2.047 0 2.828l6.586 6.586h-19.172c-1.105 0-2 0.895-2 2s0.895 2 2 2h19.172l-6.586 6.586c-0.39 0.39-0.586 0.902-0.586 1.414s0.195 1.024 0.586 1.414c0.781 0.781 2.047 0.781 2.828 0z"></path>
</symbol>
<symbol id="icon-facebook" viewBox="0 0 32 32">
<path d="M29 0h-26c-1.65 0-3 1.35-3 3v26c0 1.65 1.35 3 3 3h13v-14h-4v-4h4v-2c0-3.306 2.694-6 6-6h4v4h-4c-1.1 0-2 0.9-2 2v2h6l-1 4h-5v14h9c1.65 0 3-1.35 3-3v-26c0-1.65-1.35-3-3-3z"></path>
</symbol>
<symbol id="icon-twitter" viewBox="0 0 32 32">
<path d="M32 7.075c-1.175 0.525-2.444 0.875-3.769 1.031 1.356-0.813 2.394-2.1 2.887-3.631-1.269 0.75-2.675 1.3-4.169 1.594-1.2-1.275-2.906-2.069-4.794-2.069-3.625 0-6.563 2.938-6.563 6.563 0 0.512 0.056 1.012 0.169 1.494-5.456-0.275-10.294-2.888-13.531-6.862-0.563 0.969-0.887 2.1-0.887 3.3 0 2.275 1.156 4.287 2.919 5.463-1.075-0.031-2.087-0.331-2.975-0.819 0 0.025 0 0.056 0 0.081 0 3.181 2.263 5.838 5.269 6.437-0.55 0.15-1.131 0.231-1.731 0.231-0.425 0-0.831-0.044-1.237-0.119 0.838 2.606 3.263 4.506 6.131 4.563-2.25 1.762-5.075 2.813-8.156 2.813-0.531 0-1.050-0.031-1.569-0.094 2.913 1.869 6.362 2.95 10.069 2.95 12.075 0 18.681-10.006 18.681-18.681 0-0.287-0.006-0.569-0.019-0.85 1.281-0.919 2.394-2.075 3.275-3.394z"></path>
</symbol>
<symbol id="icon-web" viewBox="0 0 32 32">
<path d="M4.259 23.467c-2.35 0-4.259 1.917-4.259 4.252 0 2.349 1.909 4.244 4.259 4.244 2.358 0 4.265-1.895 4.265-4.244-0-2.336-1.907-4.252-4.265-4.252zM0.005 10.873v6.133c3.993 0 7.749 1.562 10.577 4.391 2.825 2.822 4.384 6.595 4.384 10.603h6.16c-0-11.651-9.478-21.127-21.121-21.127zM0.012 0v6.136c14.243 0 25.836 11.604 25.836 25.864h6.152c0-17.64-14.352-32-31.988-32z"></path>
</symbol>
</defs>
</svg>
