<?xml version="1.0" encoding="utf-8"?>
<!-- Generator: Adobe Illustrator 27.0.1, SVG Export Plug-In . SVG Version: 6.00 Build 0)  -->
<svg version="1.1"
          id="usa" xmlns:svg="http://www.w3.org/2000/svg" xmlns:cc="http://creativecommons.org/ns#" xmlns:rdf="http://www.w3.org/1999/02/22-rdf-syntax-ns#" xmlns:sodipodi="http://sodipodi.sourceforge.net/DTD/sodipodi-0.dtd" xmlns:dc="http://purl.org/dc/elements/1.1/" xmlns:inkscape="http://www.inkscape.org/namespaces/inkscape" xmlns:osb="http://www.openswatchbook.org/uri/2009/osb"
          xmlns="http://www.w3.org/2000/svg" xmlns:xlink="http://www.w3.org/1999/xlink" x="0px" y="0px" viewBox="0 0 600 411.4">
          
          <g id="HI" class="state">
            
            <path d="M189,329.2l-3.3,1.7l-0.7,3.2l5.3,1.9l1.8-0.4
              l1.2-3.3l-0.7-2.8L189,329.2L189,329.2z M179.9,334.2l-1.9,0.4l-1.5,3.1l2.1-0.1l1.6-2.7L179.9,334.2L179.9,334.2z M216.6,336.9
              l-4.8,2.7l-0.5,1.5l3.4,4.4l2.1-0.4l0.9-0.5l1.3,1l3.1-0.3l0.7-1.3l-2.5-1.4l-1.8-3L216.6,336.9L216.6,336.9z M229.8,346l-1,1.7
              l4.7,1.1l3.7,0.1l2.1-1.4l0.2-1.1l-5.2-0.3l-0.6,0.4L229.8,346L229.8,346z M241.1,348l-1.8,2.5l4.4,5.4l2.1,1.1l4.1-1l2.9-1.7
              l-0.1-1.6l-3.8-2.1l-3.7-0.7L241.1,348L241.1,348z M233.4,350.7v1.1l1.8,3.2l2.6-1.1l0.2-1.4l-1.4-1.7L233.4,350.7L233.4,350.7z
              M255.3,361.6l-1.3,1.2l0.4,1.7l1.4,1.4l-0.4,0.8l-1.6,2.7l-1.9,0.9l0.2,2.1l1.9,1.4l1.6,4.7l-0.4,2.1l0.5,3.8l3.1,2l1.5,0.1
              l1.8-2.6l1.9-2.8l2.5-1.6l1.3,0.5l3.5-1.4l3.1-2.9l0.2-1.1l-3.5-2l-1.9-3.6l-1.4-2l-2.9-1.6l-6.6-2.7L255.3,361.6L255.3,361.6z"/>
          </g>

          <g id="MS" class="state">
            
            <path d="M351.9,260.8l-0.6,0.5l-0.7-1.4l-0.8-2.1l-2-1.7l0.5-3.1l-0.4-0.5
              l-1,0.2l-4.4,0.7l-13.8,0.9l-0.5-1.2l0.3-4.7l1.6-3.3l2.7-5.3l-0.3-1.3l0.7-0.4l0.2-1.1l-1.4-1.1l-0.1-1.2l-1.2-2.3l-0.2-3.3
              l0.7-1.4l-0.2-1.9l-1.1-1.7l0.8-0.9l-1-1.4l0.2-0.9l0.7-3.7l1.3-1.2l-0.4-1.3l1.9-3.1l1.6-0.8l-0.2-0.9l-0.2-0.9l1.5-3.2l1.3-0.8
              l0.1-0.5l21-3.3l0.3,3.5l0.6,9.3l0.4,17.4l0.3,7.9l2.1,10.4l1.2,7.5l-0.1,0.7l-2.9,0.1l-0.8-0.4l-1.2-0.1l-3.8,1.3l-1-0.4
              L351.9,260.8z"/>
          </g>

          <g id="AK" class="state">
            
            <path  d="M108.4,274.9l5,32.4l0.7,0.3l1.2-0.1l0.5-0.5
              l1-0.2l0.2,1.1l3,2.1l0.3,0.9l1.2-1l0.2-0.1l-0.1-1.2l0.5-0.7l0.4-0.1l0.6-0.7l1.3,0.6l0.4,1.1l0.8,0.3l0.6,0.8l1.6,0.4l1.6,2.1
              l1.3,1.3l1,0.9l0.8,1.3l2,0.4l2.1,0.5l0.6,1.6l0.4,1.1l-0.2,1.3l-0.5,1l-0.7-0.2l-0.7-1.1l-1.1-0.4l-0.7-0.3l-0.3,0.4l0.7,0.9
              l0.3,1.4l-0.4,0.3l-0.8-0.6l-0.9-0.4l0.3,0.6l0.6,0.6l-0.3,0.4c0,0-0.3-0.1-0.5-0.3c-0.2-0.2-1-1.2-1-1.2l-0.5-0.8
              c0,0,0,0.5-0.3,0.4S130,321,130,321l0.6-0.8l-0.6-0.5l-0.3-1.9l-0.3,0.1l-0.1,1.3l-0.4,0.3l-0.6-1.3l-0.5-1.4l-0.3-0.1l0.5,2.1
              l0.1,0.4l-0.6-0.4l-1.7-2H125l-0.5-1.4l-0.8-1l-0.7-0.3l-0.1-0.9l0.7-0.6l-0.2-0.1l-0.9,0.4l-1.4-0.7l-1.2-0.9l-2-0.7l-1.7-0.7
              l0.3-1.3l-0.1-0.6l-0.6,0.7l-1,0.6l-1.5-0.2l-2.3-0.6l-2.1,0.4l-0.2,0.2L106,308h-0.8l-1.4-2l-1.3,0.3l-1.3,0.8l0.5,1.7l0.3-1.2
              l0.4,0.1l-0.3,1.7l1.1-1.2l0.3,0.6l-1.2,1.9h-0.5l-0.3-0.7l-0.5-0.2l-0.4,0.5l-1.1-0.5l-1,1l-0.5,0.9l-1.2,1l-1.8,0.2l-0.3-0.8
              l1.4-0.5l-0.1-0.5l-0.9-0.1l0.2-1l0.6-1.6l-0.1-0.7v-0.3l1.5-1.1l0.4,0.4l1-0.2l-0.6-0.9l-1.4,0.1l-1.7,1.4l-0.7,1.4l-0.5,1.1
              l-0.3,0.9l-1.5,0.8l-1,1.2v0.6l0.9,0.2l0.4,0.7l-0.8,1.4l-2.2,2l-2.7,2.1l-0.7,0.6l-1.9,0.8l-1.9,1.2l0.7,0.4l-0.5,0.6l-0.1,0.5
              l-1.1-0.2l-1.2,0.3l-0.2,0.9l-0.4,0.1v-0.9l-1.3,0.7l-1,0.6l-1.4-0.3l-1,0.9l-1.2,0.2l-0.7,0.6l-0.6,0.4h-0.8l-1-0.3l-0.8,0.4
              l-0.3,0.4l-0.7-0.3l-0.1-0.7l1.1-0.7l2.4-0.2l1.5-0.9l0.7-0.9l1.1-0.4l0.6-0.4l1-0.1l0.7,0.4l0.3-0.2l0.7-1.2l1.1-0.6l1.2-0.5
              l0.5-0.2l0.3,0.1l0.3-0.1l0.3-1.5l1.4-0.8L84,317l0.6-1.9l0.5-0.7v-1l-0.5,0.6l-1.2,0.5l-0.4-0.9h-0.5l-0.3,0.4l0.1,1.1h-0.6
              l-0.9-2.1l-0.4,0.6l-0.5-0.1l-0.2-0.7l-1.5,0.3l-0.7,0.6h-1l0.5-0.6v-1l-0.4-0.7l0.5-0.5l0.5-0.1l-0.4-0.6l-0.3-1.7l-0.4-0.3
              l-0.2,0.6l-2.3,0.4l-0.6-0.4l-0.5-1.4l-1-1.2l-0.1-0.4l0.7-0.4l-0.1-0.8l0.4-0.5l-0.3-0.1l-0.5,0.3l-0.6-1l0.1-2l1.5-1.5l0.9-0.8
              l0.5-1.5l1-0.7l1,0.3l0.3,0.9l0.9-0.3l1.1-1.1l0.6,0.1l0.4,0.2l0.6-0.1l0.8-0.6v-1.7c0,0-0.1-1.1,0.2-1.3c0.2-0.2,0.3-0.4,0.3-0.4
              l-0.5-0.7l-0.9,0.5l-1.2,0.5l-0.8-0.1l-1.4-0.4l-1.9,0.3l-1.6-1.2l-0.1-1.5l0.1-1l-0.9-0.5l-1-1.3l0.1-0.3l2.5-0.6l0.8-0.1l0.4,0.3
              h0.2l-0.2-0.6l1.4-0.5h1l0.6,0.3l-0.4,0.9l-0.1,0.6l1.1,0.4l2,0.4l0.6-0.5l-1.1-1.5l-0.6-1.2l0.3-0.4l-1.4-0.5l-0.3-0.4l0.1-0.6
              l-0.5-1.4l-1.4-1.6l-1.2-1.4l1-0.9l1.2-0.2l0.7,0.1l1.6-0.3l1.2-1.6l0.2-1.2l1.3-1.2l0.7,0.3l1-0.4l1.3-1l0.4-0.1l0.4,0.2L88,272
              l0.9-1.3l0.4-0.1l1.5,0.7l0.9,0.7l-0.1,0.5l0.3,0.4l0.5-0.7l1.5-0.1l0.3,1.4l0.8,0.4l2.7-0.2l2.6,1.2l0.5-0.5l2.1,0.7l0.8-0.4
              l0.7-0.4l1.9,0.4L108.4,274.9L108.4,274.9z M66.7,293.3l1.1,1.9v0.4l-1.1,0.1l-0.9-1.4l-0.8-0.4l-0.9,0.2l-0.2-1l0.5-1l0.6,0.8
              l0.6,0.5L66.7,293.3L66.7,293.3z M67.8,306.1l1.5,0.1l1.5,0.1l0.4,0.3l-0.4,1.5l-1.2,0.1l-1.5-1.1L67.8,306.1L67.8,306.1z
              M59.1,302.1l0.6,0.9l0.5,0.5l-0.4,0.4l-1-1l-0.1-0.7C58.8,302.2,59.1,302.1,59.1,302.1z M58.4,330.7l1.1-1.1l1.2-0.6h1l0.3,0.6
              l0.8,0.1l0.6-0.9l-0.2-0.6l1-0.4l1.3,0.8l-0.3,0.7l-1.6,0.7h-1.1l-1.5-0.2l-1.6,0.8l-0.6,0.2L58.4,330.7L58.4,330.7z M76.6,325.9
              l0.7,0.6l0.7-0.7l-0.6-0.4L76.6,325.9z M77.8,326.8l0.3-0.9h0.8l-0.2,0.8L77.8,326.8L77.8,326.8z M86.6,324.6l0.7,0.6l0.3-0.5
              l-0.4-0.7L86.6,324.6z M89.2,319.3l0.8,2.1l1.1,0.1l1.7-1.4l1.5-1.3l-0.8-0.8v-1l-0.7,0.6l-1.1-0.1l0.5-0.5l0.8,0.2l1.4-0.9l0.1-0.6
              l-1-0.2l0.2-0.8l-0.9,0.9l-1.6,1.6l-1.7,1.4L89.2,319.3L89.2,319.3z M103.9,309.1l0.8-0.7l-0.5-0.6l-0.6,0.5
              C103.7,308.2,103.9,309.1,103.9,309.1z"/>
          </g>
          <g id="FL" class="state">
            
            
            <path  d="M435,242.1l1.5,4l2.4,5.4l3.3,5.1l2.3,3.4
              l2.9,2.9l2.4,2l1,1.6l-0.6,0.8l-0.4,0.7l1.9,4.1l1.7,1.5l1.6,2.9l2.2,3.2c4.2,13.8,0.4,16.4-5.4,25.8c-2.9,4.8-5.1-5.8-6.8-5.8
              l-0.4,0.7l-1.9-2.4l-0.5-2l-1.6-2.2l-1-0.6c-1,1.4-1-3.8-3.1-7.3c-1.6-2.6-5.1-1.7-6.1-2.9c-2.4-3.1-0.6-5.5-1-7.2
              c-0.1-0.7-3.6,1.6-3.9,0.1c-0.2-0.7,1.6-7,1.5-9.2l-1.8-2l-0.8-1.7l-3-0.6l-1.1-0.3l-1-1.4l-2-0.8l-0.7-1.9l-1.6-0.5l-1.5-2
              l-2.4-0.7l-1.7-0.7l-1.5,0.1l-2.3,0.6v1.1l0.5,0.5l-0.2,0.6h-1.7l-2,2.1l-2,1.2l-2.2,0.1l-1.8,0.8l-0.3-1.5l-1-1l-1.7-0.5l-1-0.8
              l-4.7-1.9l-4.3-0.8l-2.4,0.5l-3.4,0.4l-3.3,1.4l-1.9,0.4l-0.4-4.5l-1.5-1l-1.1-0.9l0.1-1.7l5.7-1l14.3-2.4l3.8-0.6h3.1l1.6,2.1
              l0.9,0.8l4.6,0.1l6.1-0.7l12.1-1.3l3.1-0.5h2.9l0.3,1.6l1.3,0.4v-2.6l-1-2.3l0.7-0.8l3.1,0.1L435,242.1L435,242.1z"/>
          </g>

          <g id="MI" class="state">
          <path   d="
            M316.5,63.3l-0.4,0.4l2.4,2.8l4.8,0.4l5,1l1.7,0.5l6.7,1.3l1.3,1.5l2,0.6l1.3,5.7c0.6,0.3,1,0.6,1.6,1l2.8-4.3l0.5-2.3l1.1-2.5
            l0.5-0.1l0.7,0.9h0.4l2.7-1.5l0.9,0.9l0.3,0.1l0.8-0.7l0.6-1.7l1.4-0.5l4.2-0.6l1.1-1.5l3.1-0.3c20.1,1.5,2.9-6,0.4-5.7
            c-1.8-4.7-12.9,3.7-14.8,5c-7,0.3-9.8-5.3-16.7-0.9C333.8,50.5,335,54.8,316.5,63.3L316.5,63.3z M364.2,73.9l-0.1,1.2l0.2,0.9
            l0.4,3.1l-2.1,1.3l-0.4-0.1l-0.1-2.4l0.7-1.4l0.3-1.4l-0.5-0.4l-1.1,0.5l-0.5,2.4l-1.6,0.7l-1,1.1l-0.1,0.5l0.4,0.4l-0.3,1.5
            l-1.3,0.3v0.6l0.5,1.3l-0.5,3.5l-0.8,2.3l0.5,2.6l0.3,0.6l-0.4,1.4l-0.2,0.4l-0.1,1.6l2.3,3.3l2,3.5l1,2.7l-0.3,2.6l-0.4,3.4l-1.3,3
            l-0.1,1.5l-1.9,1.8l2.7-0.2l12.9-1.9l4.4-0.8l1.2-0.4l3-0.7c9.7-1.8,8.3-8.8,9.6-15c2-9.8-2.7-23.4-7.6-10.3
            c-8.8,0.3-1.9-4.2-0.4-4.4l0.3-1.5l1.4-1l-0.5-5.6l-1.1-1.2l-0.8-0.4C382.9,72.5,378,66.5,364.2,73.9L364.2,73.9z"/>
          </g>

          <g id="ME" class="state">
            
            <path  d="M518.8,30.8l1,1c-0.2,2.4,0.5,7.1-1,9.6
              c-1.8,3-4.7,3.8-8.6,7c-3.2,2.6-7.6,4.1-9.4,6.6l0.6,1.7l-0.7,0.7v2.3l-0.4,3.3l-1.3-0.5l-0.3-1.6l-2-0.5l-0.2-1.4l-4.2-12l-2.7-7.5
              l0.7-0.1l0.8,0.2l-0.1-1.3l0.5-2.4l1.2-2.5l0.6-2.1l-1-1.2l-0.2-3.1l0.4-0.5l0.3-1.5l-0.1-0.8l-0.2-2.5l0.8-2.6l1.2-4.7l0.9-2.2h0.6
              h0.6v0.6l0.7,1.1L499,14l0.4-0.4v-0.5l1.9-1.6l0.8-1h0.7l3,1.1l1,0.5l5.3,15.3l3-0.2l0.5,1l0.2,2.5l1.5,1.1h0.4l0.1-0.3l-0.3-0.6
              L518.8,30.8L518.8,30.8z"/>
          </g>

          <g id="WV" class="state">
          <path d="M429.9,129.9l0.8,2.7l0.8,3.3l1.1-1.5l1.2-1.8
            l1.4-0.4l0.8-0.9l0.9-1.5l0.8,0.3l1.6-0.3l1.4-1.3l1.1-0.9l1-0.3l0.8,0.5l2.1,0.9l1.1,0.9l0.8,0.7l-0.3,3.1l-3.4-1.3l-2.4-0.8
            l0.1,2.9l-1.4,3.2l-1.4,1.4l-0.6,1.6l-1.5,0.4l-0.4,2l-0.5,2.2l-2.2,0.3l-1.4-1.3l-0.6,0.3l-0.2,3.1l-0.7,2l-2.5,6.3l0.5,0.6
            l-0.1,1.1l-1.5,2.3l-1-0.3l-1.6,1.3l-1.5-0.2l-1,2.6c0,0-1.8,0.9-2.2,0.9c-0.1,0-1.4-0.6-1.4-0.6l-1.3,0.8l-1.3,0.7l-2.1-0.4
            l-0.7-0.6l-1.3-1.6l-1.8-1l-1.1-2l-2.5-1.8l-0.4-1.2l-1.5-0.7l-0.5-0.9l-0.3-2.9l1.2-0.1l1.1-0.5v-1.5l0.9-0.9l-0.1-2.8l0.4-2.2
            l0.7-0.4l0.8,0.6l0.3,1l1-0.6l0.2-0.9l-0.7-1l-0.1-1.4l0.5-0.8l1.2-2l0.7-0.9l1.2,0.2l1.2-1l1.6-2l1.2-2.2v-3.2l0.1-2.8l-0.1-2.6
            l-0.7-1.7l0.5-0.8l0.7-0.8l2.5,11l2.6-0.6L429.9,129.9L429.9,129.9z"/>
          </g>

        

          <g id="OH" class="state">
            
            <path d="M414,105.1l-3.3,2.4l-2.1,1.4l-1.8,2.2
              l-2.2,2.3l-1.8,0.5l-1.6,0.4l-3,1.6l-1.2,0.2l-2-1.6l-2.9,0.5l-1.5-0.7l-1.4-0.7l-2.7,0.5l-5.7,1.2l-6.3,1.5l1.2,8.2l1.4,7.6
              l2.1,13.1l0.5,2.7l2.3-0.2l1.3-0.5l1.9,0.7l1.3,2.4l2.9-0.2l1.1,1.1l1-0.1l1.4-0.8l1.4,0.1l3.1,0.1l0.9-1.2l1.3-0.8l1.1-0.4l0.4,1.5
              l1,0.5l2,1.2l1.2-0.1l0.7-0.3v-1.6l0.9-0.9l-0.1-2.7l0.5-2.3l0.7-0.4l0.8,0.6l0.4,0.9l0.9-0.6l0.2-0.8l-0.7-1v-1.3l0.4-0.6l1.1-1.9
              l0.5-0.9l1.2,0.2l1.2-1l1.6-2l1.4-2.4v-2.8l0.1-2.8l-0.3-3l-0.6-1.6l0.2-0.7l1-1l-1.6-5L414,105.1L414,105.1z"/>
          </g>

          <g id="IN" class="state">
           
            <path d="M353.7,152.9l-0.3-1.8l0.3-3.1l-0.5-3.9l-1.2-8.9l-1.2-8.6l-0.9-6.5
              l1.8,0.4l0.9,0.5l0.6-0.2l1.1-1.1l1.6-1l2.9-0.2l12.3-1.9l3.1-0.5l1.3,8.9l3.5,20.5l0.5,3.2l-0.1,1.3l0.7,1l0.1,0.8l-1.4,1l-2,1
              l-1.8,0.4l-0.2,2.7l-2.5,2l-1.5,2.3l0.3,1.3l-0.3,0.9l-1.9,0.1l-0.9-0.9l-1.4,0.8l-1.5,0.9l0.2,1.7l-0.7,0.2l-0.3-0.6l-1.3-0.8
              l-1.8,0.8l-0.8,1.7l-0.8-0.4l-0.9-0.9l-2.5,0.4l-3.1,0.7l-1.6,1v-1.6l0.1-2.6l1.2-1.7l0.9-2.2l1.3-2.4l-0.4-3.2L353.7,152.9z"/>
          </g>
          <g id="IL" class="state">
            
            <path d="M353.6,152.8l-0.2-1.9l0.2-3l-0.7-4l-1.1-8.8l-1.2-8.4l-0.9-6.5
              l-0.2-0.5l-0.5-1.4l-0.8-2l-1-0.9l-0.9-1.4l-0.3-3.1l-25.8,2.8l0.2,1.3l1.3,0.3l0.6,0.6l0.3,1l2.3,1.8l0.5,1.3l-0.3,1.9l-0.9,2.1
              l-0.3,1.4l-1.2,1.1l-1,0.4l-2.9,0.9l-0.3,1l-0.3,1.2l0.4,0.7l1.1,0.8v2.3l-1,1l-0.3,0.9l0.1,1.5l-1,0.3l-0.9,0.7l-0.1,0.8l0.2,1.1
              l-0.9,0.8l-0.5,1.6l0.4,2l1.5,4l4.4,4l3.2,1.9v2.4l0.6,0.7l3.6,0.1l1.6,0.7l-0.3,2.1l-1.1,3.4l-0.3,1.8l1.4,2.1l3.8,2.8l2.6,0.3
              l1.3,2.8l1.3,1.7l-0.4,1.7l1,2.3l1.1,1.1l0.8-0.5l0.5-1.2l1.2-1l1.2-0.4l1.5,0.6l2.1,0.7l0.7-0.2v-1.3l-0.8-1.3l0.1-1.3l1-0.8
              l1.7-0.5l0.7-0.3l-0.4-0.8l-0.5-1.3l0.8-0.6l0.6-1.8l-0.1-1.8l0.2-2.6l1.2-1.7l0.9-2.3l1.1-2.3l-0.4-2.9L353.6,152.8z"/>
          </g>
          <g id="WI" class="state">
            
            <path d="M346.2,110.8l-0.1-1.8l-0.8-2.5l-0.5-3.4
              l-0.7-1.3l0.5-1.7l0.4-1.7l0.7-1.5l-0.5-1.9l-0.5-2l0.2-1l1-1.4v-1.5l-0.5-0.7l0.3-1.5l-0.4-2.3l1.4-3.3l1.4-3.9v-1.3l-0.2-0.5
              l-0.4,0.3l-2.2,3.7l-1.4,2.3l-1,1.1l-0.4,1.3l-1.1,0.5l-0.6,1.1l-0.8-0.1l-0.1-1l0.7-1.4l1.1-2.7l1-1l0.5-1.4l-1.5-1l-1.4-5.8
              l-2-0.6l-1.2-1.2l-6.9-1.2l-1.7-0.5l-4.7-1l-4.5-0.4l-2.3-2.8l-0.4,0.3l-0.7-0.1l-0.9-2.9c-2.6-0.3-7.2,4.1-9.2,3.9l-3.2-1.8
              l-1.1,1.7v1.5l0.2,4.7l-0.6,0.9l-2.9,2.3L297,78l0.3,0.1l1.5,1.1l0.5,1.8l-0.9,1.8l0.1,2.2l0.5,3.7l1.8,1.6l1.9-0.1l1.1,1.7l1.9,0.2
              l2.4,3.1l4.1,2.1l1.2,1.5l0.7,4.1l0.5,1.8l1.3,0.8l0.2,0.8l-1.1,2l0.2,1.8l1.5,2.1l1.5,0.6l1.7,0.2l0.8,0.7L346.2,110.8L346.2,110.8
              z"/>
          </g>
          <g id="NC" class="state">
            
            <path d="M473.2,158.8l1.3,2.7c-0.6,1.1-3.4,4.6-3.4,5
              c0,1.2,11.5-0.8,11.9-0.1c1.2,2.2-7.1,7.4-14.5,6c-3.7-0.7,7.8,2.2,6.7,4.4c-2.2,1-4.3,0.4-8.1,4.4c-2.1,2.2-1,6.9-2.2,9
              c-1.3,2.2-8.4,8.7-9.6,7.6c-1.1-1-2.7-1.9-6-4.3l-7.3-3.9l-1.7-0.4l-7.1,1.2l-2.4,0.5l-1-1.8l-1.7-1.1l-9.3,0.8l-4.1,0.7l-5,2.8
              l-3.4,1.6l-11.9,2.1l0.2-2.3l1-0.9l1.5-0.4l0.3-2.1l2.3-1.7l2.1-0.9l2.3-2.1l2.4-1.3l0.3-1.7l2.1-2.3l0.4-0.1c0,0,0,0.6,0.5,0.6
              s1.1,0.1,1.1,0.1l1.2-2.1l1.2-0.4l1.3,0.1l0.8-2l1.6-1.5l0.2-1.2v-2l2.4-0.1l4-0.7l8.8-1.7l8.5-1.6l12.1-3.3l11.2-3l6.2-1.7
              L473.2,158.8L473.2,158.8z"/>
          </g>
          <g id="TN" class="state">
            
            <path d="M395.8,176.2l-29.2,4.3l-8.8,1.5l-2.6,0.4
              l-2.2,0.1v2.3l-4.6,0.4l-3.9,0.6l-4.6,0.2l-0.6,4l-0.8,3.1l-1.8,1.6l-0.6,2.5l-0.1,1.5l-2.2,1.4l0.9,2l-0.4,2.5l-0.5,0.5l60.8-9
              l0.1-2.2l1-0.9l1.6-0.5l0.3-2.1l2.2-1.6l2.2-1l2.2-2.1l2.4-1.3l0.2-1.7l2.2-2.4l0.3-0.1c0,0,0.1,0.6,0.5,0.6c0.5,0,1.1,0.1,1.1,0.1
              l1.2-2.1l1.2-0.4l1.3,0.1l0.8-2l1.6-1.6l0.2-1.1l0.1-2.1h-1.2l-1.4,1.2l-3.9,0.2l-10.3,1.9L395.8,176.2L395.8,176.2z"/>
          </g>
          <g id="AR" class="state">
            
            <path d="M290.2,190.9l1.1,3.8l0.2,4.6l1.1,6.1l1.2,21.2l1.3,1l1.6-0.9
              l1.6,0.6l0.6,3.7l31.4-2.3l0.6-1.2l-0.3-2l-1.1-1.6l0.9-0.9l-1-1.4l0.3-1.4l0.6-3.2l1.4-1.2l-0.5-1.3l1.9-3.1l1.5-0.8l-0.1-0.8
              l-0.2-1l1.5-3.2l1.3-0.8l0.1-1.9l1-0.7l-1.8-0.2l-0.9-2.2l1.5-1.4l0.3-1.1l0.6-2.3l0.5-1.9l-2.2,0.5l-2.9-0.2l0.2-0.9l1.6-1.5
              l0.4-2.1l-1.1-1.6L290.2,190.9z"/>
          </g>
          <g id="MO" class="state">
           
            <path d="M278.2,146.1l1.9,2.2l1.8,1.4l1.2,0.1l0.9,0.5l0.1,1.7l-1,0.9
              l-0.2,1.3l1.3,1.9l1.5,1.6l1.5,1l1.1,6.5l1.2,20.2l0.3,2.6l0.4,3l12.6-1.1l13.1-1.1l11.7-1.1l6.6-0.5l1.3,1.9l-0.3,1.9l-1.7,1.4
              l-0.3,1l3.1,0.1l2.2-0.5l0.8-3.1l0.2-3.3l1.1-1.5l1.4-0.9l-0.1-1.7l0.5-1.1l-1-1.4l-0.7,0.6l-1.2-1.2l-0.9-2.6l0.4-1.4l-1.2-1.9
              l-1.2-2.5l-2.7-0.3l-4.1-2.9l-1.1-2.3l0.4-1.8l1-3.5l0.2-1.6l-1.1-0.5l-3.9-0.2l-0.6-0.9l-0.2-2.4l-3.2-1.8l-4.2-4.1l-1.5-4
              l-0.3-2.4l0.4-1.3l-1.5-1.7l-0.7-1.2l-36.3,3.2l-1.3,0.1l0.8,1.4l-0.1,1.3L278.2,146.1z"/>
          </g>
          <g id="GA" class="state">
            
            <path d="M389.7,217.9l1,3.9l1.4,3.5l1.6,1.8l0.4,1.9l1.1,0.4l0.2,1.2
              l-0.9,2.8l-0.2,1.8v1.1l1,2.4l0.3,3l-0.4,1.4l0.4,0.4l0.8,0.4l0.2,1.8l1.4,1.8l1.3,1.1l4.5-0.1l6.1-0.7l12.1-1.3l3.1-0.5l2.6-0.1
              l0.2,1.6l1.5,0.4l0.1-2.5l-1-2.5l0.6-0.9l3.3,0.3h2.8l-0.6-3.5l1-5.7l0.7-2.4l-0.3-1.4l1.7-3.6l-0.3-0.7l-1.1,0.5l-1.5-0.7l-0.4-1.2
              l-0.8-2l-1.3-1.1l-1.5-0.3l-1.1-2.7l-1.8-3.5l-2.4-1l-1.2-1l-0.8-1.4l-1.2-1l-1.3-0.7l-1.4-1.6l-1.8-1.2l-2.6-0.9l-0.3-0.8l-1.5-1.6
              l-0.3-0.8l-2.1-2.7l-2,0.2l-2.2-1.2l-0.8-0.7l-0.2-1l0.4-1.1l1.2-0.7l-0.4-1.2l-23.5,4l0.1,1.2l0.2,1.2l0.5,1.9l2.1,4.3l1.7,5.5
              l1,3.4L389.7,217.9z"/>
          </g>
          <g id="SC" class="state">
            
            <path d="M429.3,217.3l-1.7-3.3l-2.4-1l-1.2-1l-0.8-1.4l-1.2-1l-1.3-0.7
              l-1.4-1.6l-1.8-1.2l-2.6-0.9l-0.3-0.8L413,203l-0.3-0.8l-2.1-2.8l-1.9,0.2l-2.3-1.2l-0.8-0.7l-0.2-1l0.4-1.1l1.2-0.6l-0.4-1.3
              l3.2-1.5l5-2.8l4.4-0.7l9.1-0.7l1.5,1l1,1.8l2.4-0.5l7.1-1.2l1.7,0.4l7.3,3.9l5.9,4.3l-2.9,3.2l-1.3,3.5l-0.1,3.5l-0.9,0.5l-0.6,1.6
              l-1.3,0.4l-1.1,2.1l-1.5,1.6l-1.2,2l-0.9,0.5l-1.9,2l-1.6,0.2l0.6,1.8l-2.7,3.2l-1.2,0.8l-1,0.6l-1.5-0.6l-0.4-1.2l-0.8-2l-1.3-1.1
              l-1.5-0.3L429.3,217.3z"/>
          </g>
          <g id="KY" class="state">
            
            <path d="M411.7,162.5l-1.2,1.4l-1.9,2.3l-2.6,3.2
              l-0.6,1v1.2l-2.4,1.3l-3.1,2.1l-4,1.2l-29.1,4.3L358,182l-2.6,0.4l-2.2,0.1v2.4l-4.6,0.3l-3.9,0.6l-4.5,0.2l0.6-0.8l1.4-0.9v-1.8
              l0.5-1.1l-1-1.4l0.4-1.1l1.2-1.1l1.2-0.4l1.6,0.6l2,0.6l0.6-0.2v-1.3l-0.8-1.3l0.1-1.3l1.1-0.9l1.4-0.4l0.9-0.4l-0.5-1l-0.4-1.1
              l0.8-0.6c0,0,0.6-2,0.6-2.1l1.7-0.9l3-0.7l2.5-0.4l0.8,0.9l0.9,0.4l0.8-1.8l1.8-0.8l1.3,0.8l0.3,0.5l0.7-0.2l-0.2-1.6l1.7-1.1
              l1.2-0.7l0.9,0.9l1.9-0.1l0.3-0.9l-0.3-1.3l1.4-2.3l2.6-2.1l0.3-2.7l1.6-0.3l2.1-1l1.3-1l-0.2-0.9l-0.7-0.8l0.2-1.7l2.4-0.2l1.3-0.5
              l1.9,0.7l1.3,2.4l2.9-0.1l1.2,1.2l0.9-0.1l1.4-0.8l3,0.2h1.5l0.9-1.2l1.4-0.9l1-0.5l0.4,1.6l1.2,0.5l1.6,1.1l0.2,3.2l0.5,0.9
              l1.5,0.8l0.5,1.3l2.4,1.8l1.1,2L411.7,162.5L411.7,162.5z"/>
          </g>
          <g id="AL" class="state">
            
            <path d="M363,257.7l-1.3-8l-2.1-10.4l-0.3-7.9l-0.4-17.4l-0.6-9.3l-0.1-3.6l25-3.3v1.2l0.2,1.2l0.5,1.9l2.1,4.3l1.7,5.5l1,3.4l1.1,2.7l1,3.9l1.4,3.5l1.6,1.8l0.4,1.9l1.1,0.4
              l0.2,1.2l-0.9,2.8l-0.2,1.8v1.1l1,2.4l0.3,3l-0.4,1.4l0.4,0.4l0.8,0.4l0.3,1.6h-3.2l-3.8,0.6l-14.3,2.4l-5.8,1.1v1.6l1.1,0.9l1.5,1
              l0.6,4.4l-3.1,1.6c-4.3,2.1-0.7,0.9-3.2-1.7c-0.6-0.6-1.6,0.4-1.8,0.3L363,257.7L363,257.7z"/>
          </g>
          <g id="LA" class="state">
           
            <path d="M349.8,257.7l-1.9-1.7l0.4-3.1l-0.4-0.5
              l-5.2,0.8l-14.1,1l-0.5-1.3l0.3-4.8l1.7-3.4l2.6-5l-0.4-1.3l0.7-0.4l0.2-1.1l-1.4-1.1l-0.1-1.1l-1.2-2.4l-0.3-3.5l-31.3,2.1l0.3,5.4
              l0.7,5.2l0.5,2.2l1.5,2.2l0.7,2.8l2.6,2.9l0.2,1.8l0.4,0.4l-0.1,4.8l-1.5,2.9l1,1.1l-0.3,1.4l-0.2,4.1l-0.7,1.8l0.2,2l2.6-1l6.8-0.2
              l5.9,1.7l3.7,0.4l2.1-0.9l1.9,0.5l1.9,0.4l0.4-1.2l-1.9-0.5l-1.4,0.3l-1.6-0.8c0,0,0.1-0.7,0.4-0.8c0.4-0.1,1.7-0.6,1.7-0.6l1,0.8
              l1-0.6l1.8,0.3l0.9,1.3l0.2,1.3h2.6l1.1,0.9l-0.4,0.9l-0.7,0.5l1,0.9l4.8,1.7l2-0.8c0.2-0.7,2.2-1.2,4.1-4.2c0.1-0.1,8.4,3.2,8.5,3
              c0.7-1-7.1-6.8-7.5-8c-0.9-2.9-10.4-4-9.9-5c0.4-0.7,13.3,0.4,14.1-1.1l-0.7-1.3L349.8,257.7L349.8,257.7z"/>
          </g>
          
          <g id="IA" class="state">
           
            <path d="M325.2,121.9l-0.8,1.9l-0.4,1.6l-1.2,1l-1,0.4l-3.1,1.2l-0.7,2.2
              l0.5,0.7l1.1,0.9v2.3l-1,0.9l-0.4,0.9l0.2,1.6l-1.1,0.3l-0.9,0.7l-0.1,0.8l0.2,1.2l-0.8,0.7l-1.5-1.7l-0.8-1.3l-37,3.3l-0.5,0.1
              l-1.3-2.5l-0.3-3.7l-1-2.3l-0.5-2.9l-1.4-2l-0.7-2.7l-1.8-4.1l-0.8-3l-0.8-1.2l-1-1.5l1-2.8l0.6-3.2l-1.6-1.1L266,107l0.4-1.4h1
              l46.6-3.1l0.6,2.3l1.3,0.8l0.2,0.8l-1,2l0.2,1.8l1.5,2.1l1.5,0.7l1.8,0.2l0.4,0.4l0.2,1.6l1.3,0.3l0.6,0.7l0.3,1l2.2,1.8l0.5,1.3
              L325.2,121.9z"/>
          </g>
          <g id="MN" class="state">
            
            <path d="M265.3,76.5l-0.5-4.7l-1.2-4l-1.4-7.5l-0.5-5.5
              l-1.1-1.9l-1-2.8l-0.3-5.8l0.3-2.2l-1.2-3l17-0.9l-0.1-4.6l0.4-0.1l1.3,0.2l1.1,0.4l0.6,3.1l1,3.4l1,0.9l11.9,0.1l0.2,0.8
              c2.1,0,0.8,3.7,5.8,5.4c1.5,0.5,7.1-0.2,9.1-0.1c5.1,0,18.4-2,5.8,4.5l-1.7,1.5l-1.3,2.1l-1.2,2.2l-1,0.5l-2.4,2.9l-0.7,0.1
              l-2.4,1.7l-1.3,1.9v1.8l0.3,4.5l-0.7,1l-2.8,2.3l-1.1,3.4l1.7,1.2l0.5,1.8l-1,1.9l0.2,2.1l0.4,3.8l1.8,1.6l1.9-0.1l1.2,1.7l1.9,0.2
              l2.3,3.1l4.1,2.1l1.3,1.5l0.6,3.6l-45.8,3l-1.2-20l-0.3-1.7l-2.4-1.8l-0.7-1v-0.9l1.1-1l0.7-0.8L265.3,76.5L265.3,76.5z"/>
          </g>
          <g id="OK" class="state">
            
            <path d="M237.2,217.2l2.6,1.9l1.2,0.6l0.4-0.1l0.3-1.2l0.8,1l1.2-0.1v-0.8
              l1.6,0.7l-0.1,2.2h2.3l1.5,0.6l2.3,0.3l1.5,1l1.2-1.2l2,0.3l1.5,1.8h0.5l0.1,1.3l1.3,0.3l1.2-1.3l1.1,0.3l1.4-0.1l0.6,1.4l3.6,1
              l0.8-0.4l0.9-2.4h0.6l0.7,1.1l2.3,0.3l2.1,0.7l1.7,0.4l1-0.6l0.3-1.4l2.5-0.1l1.2,0.4l1.5-1.2h0.6l0.4,0.9l2.3-0.1l0.8-1.2l1,0.2
              l1.2,1.4l1.9,0.9l1.8,0.4l1.1,0.6l-1.3-20.8l-1.1-6.1l-0.3-5l-1-3.6l-0.6-4l-0.1-2.1l-6.8,0.5l-26.2,1.1l-25.5,0.2l-13.8-0.1
              l-9.5-0.2l-0.2,6.2l11.6,0.1l18.1-0.2l-0.6,13.8l0.3,10L237.2,217.2z"/>
          </g>
          <g id="TX" class="state">
            
            <path d="M207.6,192.7h12.2l17.6-0.3l-0.6,13.2l0.4,10.2
              l0.1,1.2l2.6,2l1.2,0.8l0.7-0.3l0.2-1l0.7,1h1.2v-0.8l1,0.5l0.7,0.2l-0.1,2.2l2.3-0.1l1.7,0.6l2.2,0.2l1.4,1.1l1.1-1.2l2.1,0.2
              l1.3,1.7l0.6,0.1v1.1l1.3,0.4l1.3-1.2l1.2,0.3h1.3l0.6,1.3l3.6,1l0.9-0.5l0.7-2.4h0.2h0.5l0.8,1.1l2.2,0.3l1.9,0.5l2,0.6l1-0.6
              l0.3-1.4l2.5-0.1l1,0.5l1.5-1.3h0.6l0.5,0.9l2.3-0.1l0.8-1.2l1.1,0.2l1.2,1.3l2,1l1.6,0.4l0.9,0.4l1.4,1l1.7-0.8l1.6,0.6l0.5,3.4
              l0.3,5.4l0.7,5.3l0.5,2l1.6,2.4l0.7,2.7l2.5,3l0.2,1.8l0.4,0.4l-0.2,4.7l-1.5,2.9l0.9,1.2L305,264l-0.2,4.2l-0.8,1.9l0.3,2l-3.2,1.1
              l-5.4,2.8l-0.5,1.1l-1.4,1.2l-1.1,0.9l-0.7,0.5l-3,3.2l0,0l-7,0.1l-3.3,3.8l-0.8,2.6l-4.5,1.6l0.3,1.4l-1.9,0.5l-2,3.2l-2.3,0.3
              l-0.5,1.1l1.3,1l-0.7,3.1l-1.1,4.8l-0.3,2.6l0.5,1.3l1.2,3.8l0.7,3.4l1.1,1.5l-0.5,0.8l-0.2,2.8l-3.3-1.5c-1.6-0.2-4-0.6-5.4-0.9
              c-3.7-0.8-7.6-3.7-11.9-2.4l-1-5.2l-0.9-3.6l-1.9-1l-0.4-1.2l0.3-0.4l0.1-1.9l-0.7-0.3l-0.4-0.5l0.6-2.5l-1-1.2l-1.9-0.6l-2-2.3
              l-2.2-3.6l-2.4-1.3v-1.1l-3.4-6.7l-0.6-2.3l-1.1-1l-0.1-0.8l-3.5-2.8l-1.5-1.6v-0.6l-1.5-1.1l-3.9-0.4l-4.2-0.1l-1.8-1.2l-2.5,1.1
              l-2,0.9l-1.2,1.9l-0.4,2.1l-2.3,3.6l-1.3,1.4l-1.5-0.5l-1-0.6l-1.1-0.3l-2.3-1.2v-0.4l-1.1-1l-3-1l-2-4l-1.3-2.1
              c-0.2-4.2-1.2-6.5-0.8-10.6l-5.4-0.1l-0.7-1.1l-2.9-1l-0.8-0.9l-4.2-4.2l-0.8-1.8l-2.7-1.1l-0.9-2.4l-1.5-1.6l-1.1-0.2l-0.5-2.6
              l4.5,0.2l16.5,0.7l16.4,0.1l0.7-11l0.6-31.2l0.4-10.6L207.6,192.7L207.6,192.7z"/>
          </g>
          <g id="NM" class="state">
            
            <path d="M206.8,192.8h0.9l0.1-6.3l-59-2.9l-6.4,68l8.8,0.7l0.4-5.7l16.6,0.7
            l-0.6-2.6h4.9l17.1,0.8l15.4,0.2l0.7-10.5l0.6-31.4L206.8,192.8z"/>
          </g>
          <g id="KS" class="state">
            
            <path d="M252.7,149.6l25-0.7l2.9-0.1l1.3,1.1l1.1-0.1l1,0.5l0.1,1.7l-1,1
              l-0.1,1.3l1.1,1.9l1.8,1.7l1.4,0.8l1.1,6.3l1.2,20.2l-7.1,0.5l-26,1.1l-25.2,0.1h-13.9l0.3-36.3l12.5-0.3L252.7,149.6z"/>
          </g>
          <g id="NE" class="state">
           
            <path d="M229.9,150.2l-12.6,0.2v-12l-18.3-0.7l1.2-24.8l8.8,0.1l11.4,0.1
              l10.1,0.1l13.5-0.1l6.1-0.6l1.2,1.2l2.8,1.5l0.7,0.5l2.4-0.9l2.2-0.4l1.5-0.2l1.1,0.7l2.3,0.8l1.7,0.8l0.3,0.9l0.6,1.1l1-0.1h0.5
              l0.6,2.6l1.9,4.7l0.4,2.1l1.5,2l0.5,2.8l1,2.3l0.3,3.6l2,3.8v1.3l2.1,3l1.6,1.7l-2.9,0.1l-24.6,0.7L229.9,150.2z"/>
          </g>
          <g id="SD" class="state">
            
            <path d="M266.4,105.5l1.8-0.1l-0.2-2.8l-1.1-16.9l-0.5-2.1l-2.4-1.7l-0.6-0.9
              l-0.1-0.9l1.1-0.9l0.8-1l0.1-1.5l-32.9,0.8l-31-0.3l-1.2,35.8l8.3,0.1l11.3,0.1h10h13.5l6.8-0.6l1.2,1.2l3,1.7l0.5,0.4l2.5-0.9
              l3.7-0.5l1,0.7l2.4,0.8l1.7,0.8l0.3,0.8l0.7,1.2l1.3-0.2v-0.3l-1.8-2.6l0.9-2.7l0.7-3.3l-1.6-1.1L266,107L266.4,105.5z"/>
          </g>
          <g id="ND" class="state">
            
            <path d="M259.1,44.3l0.2-2.2l-1.2-3l-16.2,0.5l-10.5,0.2h-15l-13-0.5l-2,37.8
              l31.1,0.3l32.8-0.9l-0.6-4.7l-1.1-3.8l-1.4-7.2l-0.6-6.1l-1.1-1.7l-1.1-2.9L259.1,44.3z"/>
          </g>
          <g id="WY" class="state">
           
            <path d="M199.2,137.8l1.7-49.9l-60.7-4.4l-5.4,50L199.2,137.8z"/>
          </g>
          <g id="MT" class="state">
           
            <path d="M103.2,41.8l2.2,4.1l-0.6,2.6L106,51l1.8,0.7l2.9,5.9l1.6,1.7
              l0.3,0.6l2,0.5l0.3,1.1l-3.5,10.1l0.1,1.4l1.5,1.7h0.5l2.6-1.8l0.4-0.7l0.9,0.3v3l1.9,7l1.8,1.3l0.5,0.4l1.1,1.2l-0.2,1.9l0.5,1.9
              l0.7,0.5l1.2-1.3l1.5-0.1l1.9,0.8l1.4-0.6l2.3-0.1l2.1,0.8l1.5-0.3l0.2-1.7l1.7-0.5l0.8,0.7l0.4,1.8l0.8,0.4l0.7-6.2l60.7,4.4
              l2.5-48.6L186,38.5l-16.6-1.1L152.8,36l-18.5-2l-10.5-1.4l-18.7-2.9L103.2,41.8z"/>
          </g>
          <g id="CO" class="state">
            
            <path d="M148.6,184.2l68.5,2.7l0.3-48.5l-64.4-3.8L148.6,184.2z"/>
          </g>
          <g id="ID" class="state">
           
            <path d="M82.2,112.7l3.9-20l0.7-2.4l1.2-3.4l-0.8-1.2
              l-1.4,0.1l-0.5-0.6l0.2-0.7l0.1-1.7l2.4-3.2l1-0.3l0.6-0.7l0.2-1.8l0.5-0.4l2-3.4l2.1-2.5v-2.1l-2-1.4l-1-2.4l5.9-35.9l7.7,1
              l-1.9,12.1l2.2,4.1l-0.8,2.7l1.2,2.5l1.8,0.6l2.4,5.2l2.1,2.4l0.3,0.6l1.9,0.5l0.3,1.2l-3.4,9.9v1.4l1.6,1.8l0.5-0.1l2.7-1.8
              l0.4-0.6l0.9,0.3v3l1.9,7l2.3,1.7l1,1.2l-0.3,2.3l0.7,1.5l0.6,0.6l1.3-1.4l1.6-0.1L128,89l1.5-0.5l2.1-0.2l2.3,0.8l1.5-0.2l0.2-1.7
              l1.6-0.5l0.8,0.8l0.3,1.6l0.8,0.6l-3.2,30.3C136.3,120.1,86.2,113.3,82.2,112.7z"/>
          </g>
          <g id="UT" class="state">
            
            <path d="M148.4,134.3l4.7,0.2l-4.4,49.8l-47.6-4.2l8.4-63.7l26.7,3.5l-0.5,6
              l-0.9,7.4l4.4,0.3L148.4,134.3z"/>
          </g>
          <g id="AZ" class="state">
            
            <path d="M95.9,236.4l7.1,3.9l8.6,4.4l9.8,5.1l7,1
              l14.2,0.8l6.3-67.2l-47.6-4.2l-1.3,9.3l-0.9,0.1l-0.9,1.5h-1.4l-0.8-1.5l-1.6-0.1l-0.5-0.6h-0.5l-0.5,0.3l-1.1,0.6l0.1,3.9l-0.1,1
              v7.1l-0.8,1.3l-0.2,1.9l1.7,2.7l0.9,3.2l0.5,0.6l0.6,0.3v1.3l-0.9,0.8l-1.9,1.1l-1,1.1l-0.7,2.1l-0.2,2.8l-1.5,1.6l-1.1,0.4l0.1,0.5
              l-0.2,1l0.3,0.4l2.1,0.2l-0.2,1.6c-2.2,3.6,4.4,0.2,4.9,0.9C94.4,228.1,88.8,232.9,95.9,236.4L95.9,236.4z"/>
          </g>
          <g id="NV" class="state">
            
            <path d="M93.8,188.7h-0.6l-1.5,1
              v3.8v3.2l0.1,4.8l-0.8,1.2l-1.4-0.5l-42-56.4l8.9-39.3l53,9.7l-9.6,72.9l-1,0.2l-0.8,1.4l-1.3,0.1l-0.9-1.5l-1.5-0.1L93.8,188.7z"/>
          </g>
          <g id="OR" class="state">
            
            <path d="
              M85.6,84.5l0.2-1.8l2.4-3.2l1-0.7l0.6-0.7l0.7-2l2.1-3.3l1.9-2.3v-1.9l-1.9-1.3l-1.1-2.5L84.2,63l-8.6-1.5L66.9,62l-0.3-0.8l-3,1.3
              L61,62.4l-1.4-0.8L58.9,62h-2.7l-1-0.7l-3-1l-0.4,0.1l-2.5-0.7l-1,1.1h-3.5l-3.5-2.1l0.4-0.5l-0.1-4.4l-1.4-2.1l-2.3-0.2L37.3,50
              L36,49.8l-3.2,1.3l-1.1,3.7l-1.5,5.7l-1.6,3.7l-5.1,6.6l-2.8,8.6l-6,11.2L14.1,97l68.5,14.7l3.8-19.3l0.5-2.4l1.2-3.2l-0.4-0.6h-1.4
              l-0.8-0.9L85.6,84.5z"/>
          </g>
          <g id="WA" class="state">
            
            
            <path d="M56.3,20.7l2.8,0.6l4.9,0.8l11.5,2.6l13.1,2.5
              l8.7,1.4l-5.9,36L84.3,63l-8.9-1.5L66.9,62l-0.3-0.7l-3.1,1.4l-2.6-0.3l-1.3-0.8L58.9,62l-2.7,0l-1-0.7l-3-1l-0.4,0.1l-2.5-0.7
              l-1,1.1h-3.5l-3.5-2.1l0.4-0.5l-0.2-4.3l-1.4-2.1l-2.3-0.2L37.3,50L36,49.8l-2,0.8l-1.4-1.7l0.1-1.6l1.5-0.3l0.8-2.3l-1.5-0.6V42
              l2.4-0.5L34.3,40l-1-3.9l0.3-1.6L33.4,30c1.3-8.8,1.7-10.5,10.9-6.6c0,0,1.7,1.2,1.9,2.5c0.1,1.2-2.4,6.9-2.4,6.9s0.7,4.6,2.4,6
              c1.6,1.3,3.5-0.6,4.1-1.3s5.6-6.1,5.6-6.1L56.3,20.7L56.3,20.7z"/>
          </g>
          <g id="CA" class="state">
            
            <path d="
              M86,228.1l2.2-0.4l0.8-1.2l0.2-1.7l-2-0.2l-0.3-0.4l0.2-1.2l-0.1-0.3l1.1-0.4l1.6-1.7l0.2-2.8l0.7-1.9l1-1.3l1.9-1l0.9-0.9v-1.2
              l-0.6-0.3l-0.6-0.6l-0.8-3.2l-1.7-2.6l0.2-2l-1.4-0.5l-42-56.4l8.7-39.6L14.1,97l-3.3,11.2c-0.1,11.1-1.7,25.4,4.8,35l1.4,2.7
              l0.8,2.2l-0.1,1.8l-0.2,0.3l0.1,1.2l3.4,3.4l-0.2,1.4l-0.3,1.3l-0.3,1.1l0.3,4.6l1.3,2l1.2,1.4l1.6,0.2l0.6,1.5l-0.5,2l-1.1,1H23
              l-0.3,2.2l0.4,1.6l2,2.4l1.1,2.9l1,2.6l0.8,1.7c13.7,16,38.3,21.6,32.9,35.4c0.2,3.2,3.5,6.5,6.3,6.8l11.2,1L86,228.1L86,228.1z"/>
          </g>
          <g id="VA" class="state">
            
            <path d="M473.2,158.8l0.6-4.5l-6.9-0.5l-6.4-4.3
              c0,0,5.9,1.1,6.4,1.5s4-0.1,4-0.1l-1.1-4.5l-13.4-7l1-4.3l-6.7-5.3l-0.1-0.7l-4.4,0.2l1.4,1.2l-0.1,3.2l-3.2-1.2l-2.6-0.9l0.1,2.9
              l-1.3,3l-1.3,1.5l-0.7,1.7l-1.5,0.4l-0.8,4.1l-2.1,0.4l-1.5-1.3l-0.6,0.3l-0.2,3.1l-3.1,8.3l0.5,0.6l-0.1,1l-1.5,2.4l-1-0.3L425,161
              l-1.5-0.2l-0.9,2.5l-2.2,1l-1.3-0.6l-2.7,1.5l-2.1-0.4l-2.2-2.4l-0.3-0.1l-2.1,2.5l-3.5,4.3l-0.7,1.1v1.2l-5.7,3.5l10.9-2.1l3.9-0.2
              l1.4-1.2l3.4-0.1l21.6-4L473.2,158.8L473.2,158.8z"/>
          </g>
          <g id="NJ" class="state">
            
            <path d="
              M471.1,98.8c0,0,0,0.2-0.1,1s-0.9,1.7-1.5,2.3c-0.6,0.6-0.7,1.4-0.8,1.8c0,0.4,0.1,1.1,0.2,1.6s0.4,0.9,0.8,1.5
              c0.4,0.7,4.4,3.6,4.4,3.6l-7.4,9.7l13.2,6.5l4.3-14.9c0,0-3.9-3.7-3.2-5.2c0.8-1.5,2.8-3.7,2.8-3.7l-1.1-3.3L471.1,98.8L471.1,98.8z
              M542,170.5L542,170.5c-0.1,4.8,3.7,8.7,8.5,8.8h0.9c4.8,0.1,8.8-3.8,8.8-8.6l0,0c0-4.8-3.9-8.6-8.6-8.7h-0.9
              C545.9,162,542.1,165.8,542,170.5z"/>
          </g>
          <g id="RI" class="state">
            
            <path d="M499.7,81.8
              l-3.4,2.5l0.8,5.3l3.8-2.9l1.8-3L499.7,81.8z M512.4,170.3L512.4,170.3c-0.1,4.7,3.5,8.6,8.2,8.8h1.2c4.8,0.2,8.9-3.7,8.9-8.5l0,0
              c0-4.7-3.8-8.6-8.6-8.6h-1.2C516.3,162,512.5,165.7,512.4,170.3z"/>
          </g>
          <g id="DE" class="state">
            
            <path d="
              M470.8,123.8l1.2,6.5l2,6.8l3.3,0.3l-0.3-6.1L470.8,123.8L470.8,123.8z M542,197.9L542,197.9c-0.2,4.7,3.6,8.7,8.3,8.9h1
              c4.9,0.2,8.9-3.7,8.9-8.6l0,0c0-4.7-3.8-8.6-8.5-8.6h-1C546,189.5,542.1,193.2,542,197.9z"/>
          </g>
          <g id="MD" class="state">
            
            <path d="
              M467.2,120.6l-1.7,0.4l-23.9,6l-11.6,3.1l1.6,6.1l2.3-3.3l1.5-0.6l1.8-1.7l2.7-0.3l3-1.8l3.8,1.3l4-0.5l0.1,0.6l6.8,5.5l-1,4.3
              l10,0.9l-2.5-10.9l2.2-5.2c0,0.9,0,1.8-0.1,2.2c-0.2,1,0.1,5.3,0.1,5.3l5.9,9.6l5.8,3.7l-0.2-7.8l-3.3-0.3l-2.1-6.8l-1.1-6.5
              L467.2,120.6L467.2,120.6z M512.4,197.9L512.4,197.9c-0.1,4.7,3.7,8.6,8.5,8.6h1.5c4.7,0,8.6-3.9,8.5-8.6l0,0
              c-0.1-4.6-3.9-8.3-8.5-8.3h-1.5C516.3,189.6,512.5,193.3,512.4,197.9z"/>
          </g>
          <g id="NH" class="state">
            
            <path  d="
              M490.9,42.8l-5.4,0.1v5.4l1,21.8l1.2,7.1l2.6-0.2l9.5-3.1l0.6-11.1l-1.2-0.5l-0.3-1.6l-2-0.5l-0.4-1.8L490.9,42.8L490.9,42.8z
              M542.1,115.1L542.1,115.1c-0.1,4.8,3.8,8.8,8.6,8.9h0.7c4.9,0.1,8.8-3.9,8.8-8.7l0,0c0-4.8-3.9-8.7-8.6-8.7h-0.7
              C546.1,106.5,542.2,110.3,542.1,115.1z"/>
          </g>
          <g id="CT" class="state">
            
            <path d="M496.2,83.6l-12.7,2.1l1.3,8.5
              l7.3-1.7c0,0,4.8-2.5,4.9-3C497.2,89.1,496.2,83.6,496.2,83.6z M541.9,141.8L541.9,141.8c-0.1,4.7,3.6,8.6,8.2,8.8h1.2
              c4.8,0.2,8.9-3.7,8.9-8.5l0,0c0-4.7-3.8-8.6-8.6-8.6h-1.2C545.8,133.5,542,137.2,541.9,141.8z"/>
          </g>
          <g id="VT" class="state">
            
            <path d="
              M485.6,48.3l-12.2,5.6l1.6,1.6c0.2,0.3,0.4,0.6,0.4,0.9l1.4,12.3c0,0,0.9,0.9,2.4,2.5c1.5,1.5,2.3,2.7,2.8,3.8
              c0.5,1,0.4,2.1,0.3,2.4l0,0l5.4-0.2l-1.2-7.1L485.6,48.3L485.6,48.3z M512.4,114.9L512.4,114.9c-0.1,4.7,3.6,8.7,8.3,8.8h0.3
              c4.8,0.2,8.8-3.5,9-8.3l0,0c0.2-5-3.8-9.1-8.8-9h-0.3C516.2,106.5,512.5,110.2,512.4,114.9z"/>
          </g>
          <g id="MA" class="state">
            
            <path d="
              M499.8,73.9l-9.5,3.1l-8,0.7l1.2,8.1l12.7-2.1l0.1,0.7l3.4-2.5l3,1.9h5.3l2-2.2l0.2-5.5l-4.2,3.7C506.1,79.8,499.8,73.9,499.8,73.9
              L499.8,73.9z M512.4,141.6L512.4,141.6c-0.1,4.8,3.6,8.8,8.4,9h0.4c5.1,0.2,9.2-4,9-9l0,0c-0.2-4.8-4.2-8.6-9-8.4h-0.4
              C516.3,133.3,512.6,137,512.4,141.6z"/>
          </g>
          <g id="PA" class="state">
            
            <path d="M420.6,131.8l-4.2-16l-2.2-10.8l6.9-6.4
              l1.5,2.5l2.8,0.4l38-9.3c0,0,0.6,0.9,2.2,1.2c1.5,0.3,2.2,2.1,2.2,2.8s-0.4,2.2-0.4,2.2l3.9,0.3c0,0,0.3,1.5-1.4,3.1
              c-1.7,1.5-0.6,4.1,0.1,5s4.4,3.6,4.4,3.6l-7.4,9.7l-36.8,9.7L420.6,131.8L420.6,131.8z"/>
          </g>
          <g id="NY" class="state">
            <title>NY</title>
            
            <path d="
              M484.6,99l9.1-4.7c0,0-4,4.3-5.4,5.6s-4.4,3.4-4.4,3.4l-1.1-3.3l-11.7-1l-3.9-0.3c0,0,0.4-1.8,0.4-2.2c0-0.3-0.2-1.4-0.8-1.9
              c-0.5-0.5-1.1-0.7-1.6-0.9c-0.5-0.2-1-0.4-1.3-0.6s-0.6-0.6-0.6-0.6l-11.7,2.8l-16.2,3.9l-10.2,2.5l-2.8-0.4l-1.5-2.5L426,90
              l0.8-4.9c0,0,4.3-3.4,5-3.4s2.3,0.7,4,0.7s2.9,0.9,4,1.1s8.1-6.2,8.1-6.2l3.4-2l-4.3-4c0,0,2.8-5.1,3.5-6.6c1-2.3,2.1-4.4,2.1-4.4
              s2.1-1.5,4-2.5c2.5-1.2,5.2-2,5.2-2l11.1-2l2.2,2.3l1.4,12.9c0,0,2.7,2.6,4.1,4.4c1.4,1.9,1.4,3.3,1.4,4s2.6,17,2.6,17l-1.3,3.4
              L484.6,99z"/>
          </g>
          <g id="DC" class="state">
            
            <path d="M530.7,225.1
              L530.7,225.1c0.1,4.8-3.8,8.8-8.7,8.9c-0.3,0-0.5,0-0.8,0c-4.9,0-8.9-4-8.8-8.9l0,0c0.1-4.7,4-8.6,8.7-8.6h0.8
              C526.7,216.4,530.6,220.2,530.7,225.1z"/>
          </g>

          
        </svg>
